<svg xmlns="http://www.w3.org/2000/svg" viewBox="0 0 398 140">
<g fill="#F7A41D">
	<g>
		<polygon points="46,22 28,44 19,30"/>
		<polygon points="46,22 33,33 28,44 22,44 22,95 31,95 20,100 12,117 0,117 0,22" shape-rendering="crispEdges"/>
		<polygon points="31,95 12,117 4,106"/>
	</g>
	<g>
		<polygon points="56,22 62,36 37,44"/>
		<polygon points="56,22 111,22 111,44 37,44 56,32" shape-rendering="crispEdges"/>
		<polygon points="116,95 97,117 90,104"/>
		<polygon points="116,95 100,104 97,117 42,117 42,95" shape-rendering="crispEdges"/>
		<polygon points="150,0 52,117 3,140 101,22"/>
	</g>
	<g>
		<polygon points="141,22 140,40 122,45"/>
		<polygon points="153,22 153,117 106,117 120,105 125,95 131,95 131,45 122,45 132,36 141,22" shape-rendering="crispEdges"/>
		<polygon points="125,95 130,110 106,117"/>
	</g>
</g>
<style>
.a { fill: #121212 }
.b { fill: #f2f2f2 }
@media (prefers-color-scheme: dark) { 
    .a { fill: #f2f2f2 }
    .b { fill: #121212 }
}
</style>
<g>  <!-- Draw the letter "U" -->
    <!-- u text element -->
    <text x="170" y="116" font-family="Arial" font-size="128" font-weight="bold" fill="currentColor" class="a">U</text>
    <rect class="a" x="266" y="16" width="136" height="108"/>
    <text x="270" y="116" font-family="Arial" font-size="128" font-weight="bold" fill="currentColor" class="b">ID</text>
</g>
</svg>